<svg width="16" height="32" fill="none" xmlns="http://www.w3.org/2000/svg"><path d="M8 0A8.01 8.01 0 00.056 7.059H0v15.887h16V7.059h-.056A8.01 8.01 0 008 0zm6.118 21.064H1.882v-8.678a1.685 1.685 0 001.45.602c1.214 0 2.004-.677 2.004-1.534v-.819a.81.81 0 111.61 0v3.097a1.76 1.76 0 001.995 1.722 1.75 1.75 0 001.995-1.647v-2.08a1.269 1.269 0 011.778-1.272 1.268 1.268 0 01.754 1.272.387.387 0 000 .085 1.064 1.064 0 00.63.837v8.471l.02-.056zM6.588 30.588a1.412 1.412 0 102.824 0v-6.7H6.588v6.7z" fill="#323232"/></svg>