<svg width="16" height="26" fill="none" xmlns="http://www.w3.org/2000/svg"><path d="M9.59 4.119c0-1.092-.42-2.14-1.171-2.913A3.942 3.942 0 005.59 0C4.53 0 3.512.434 2.762 1.206A4.182 4.182 0 001.591 4.12v11.988A5.822 5.822 0 000 20.144a5.978 5.978 0 00.669 2.77 5.78 5.78 0 001.865 2.113c.782.534 1.68.86 2.615.948a5.522 5.522 0 002.74-.44 5.69 5.69 0 002.208-1.727 5.922 5.922 0 001.15-2.598c.168-.95.105-1.929-.184-2.848a5.865 5.865 0 00-1.474-2.418V4.119zm.144 16.025a4.293 4.293 0 01-.493 2.048 4.146 4.146 0 01-1.398 1.541 3.972 3.972 0 01-3.959.231 4.106 4.106 0 01-1.558-1.368 4.305 4.305 0 01-.403-4.062 4.178 4.178 0 011.258-1.665V4.119c0-.658.254-1.29.706-1.755a2.375 2.375 0 011.703-.726c.64 0 1.252.261 1.704.726A2.52 2.52 0 018 4.12v12.594c.537.385.975.899 1.277 1.496.302.598.458 1.262.457 1.935z" fill="#323232"/><path d="M6.457 17.581V4.176a.831.831 0 00-.233-.579.784.784 0 00-.562-.24.784.784 0 00-.562.24.831.831 0 00-.233.58V17.58c-.53.193-.978.573-1.263 1.073a2.519 2.519 0 00-.293 1.659c.095.57.383 1.09.813 1.463.43.373.975.578 1.538.578.563 0 1.107-.205 1.538-.578.43-.374.718-.892.813-1.463a2.518 2.518 0 00-.293-1.659c-.285-.5-.732-.88-1.263-1.073zM16 3.202h-4.771V4.84H16V3.202zM16 6.477h-4.771v1.638H16V6.477zM16 9.753h-4.771v1.637H16V9.753zM16 13.028h-4.771v1.638H16v-1.638z" fill="#323232"/></svg>