<svg width="16" height="27" fill="none" xmlns="http://www.w3.org/2000/svg"><path d="M15.992 15.597C15.644 7.939 8.865.524 8.563.202h-.039L8.431.097l-.1-.065h-.434L7.75 0h-.04l-.138.097-.086.072h-.038C7.145.524.367 7.948.003 15.597a1.24 1.24 0 000 .169v.879c.294 8.302 7.747 10.333 7.809 10.35h.193c.065.007.13.007.194 0 .07 0 7.514-2.088 7.801-10.35v-.879c0-.056-.008-.113-.008-.17zm-13.944-2.83a19.085 19.085 0 005.183 3.313v3.668c-1.898-.976-4.819-2.708-5.679-4.232.07-.93.228-1.85.473-2.748h.023zm1.55-4.11a9.526 9.526 0 003.633 2.466V14.3a14.871 14.871 0 01-4.648-3.224 24.12 24.12 0 011.014-2.418zm9.846 2.418a14.833 14.833 0 01-4.649 3.224v-3.176a9.53 9.53 0 003.603-2.466c.39.774.74 1.57 1.046 2.386v.032zm-4.649-1.66V2.965a36.438 36.438 0 012.828 4.175A7.078 7.078 0 018.78 9.382l.015.032zm0 10.349V16.08a19.076 19.076 0 005.206-3.296 14.6 14.6 0 01.45 2.756c-.853 1.5-3.773 3.225-5.671 4.192l.015.032zM7.246 9.414a7.014 7.014 0 01-2.843-2.273 36.455 36.455 0 012.828-4.215l.015 6.488zm-5.531 8.65A25.91 25.91 0 007.23 21.52v3.547a9.136 9.136 0 01-3.615-2.772 9.646 9.646 0 01-1.901-4.233zm7.065 7.012v-3.563a25.494 25.494 0 005.516-3.45 9.516 9.516 0 01-1.886 4.249 9.007 9.007 0 01-3.63 2.764z" fill="#323232"/></svg>