<svg width="108" height="31" fill="none" xmlns="http://www.w3.org/2000/svg"><path d="M0 12.096v2.42h2.308v-2.42H0zM10.938 4.254c-1.466 0-2.65.665-3.393 1.633h-.08V0H5.558v14.516h1.907v-4.98c0-1.996 1.245-3.427 3.071-3.427 1.726 0 2.73 1.29 2.73 3.024v5.383h1.907V8.79c0-2.762-1.706-4.536-4.235-4.536zM24.997 4.536H20.48V1.008h-1.907v3.528h-1.807v1.855h1.807v5.625c0 1.613.903 2.5 2.529 2.5h3.894V12.64h-3.513c-.642 0-1.003-.363-1.003-.988V6.391h4.516V4.536zM38.618 4.274c-1.525 0-2.69.746-3.332 1.936h-.06c-.582-1.17-1.666-1.936-3.15-1.936-1.326 0-2.33.706-2.931 1.694h-.08V4.536h-1.827v9.98h1.907V9.395c0-1.875.983-3.246 2.468-3.286 1.405-.04 2.228.967 2.228 2.48v5.927h1.907V9.234c0-2.238 1.325-3.125 2.469-3.125 1.385 0 2.208.967 2.208 2.48v5.927h1.907v-6.13c0-2.418-1.365-4.112-3.714-4.112zM44.916 11.935c0 1.633.923 2.58 2.63 2.58h1.886v-1.854h-1.606c-.642 0-1.003-.363-1.003-.988V0h-1.907v11.935zM27.145 18.507h-.08c-.744-1.002-1.95-1.704-3.559-1.724-2.956-.04-5.067 2.145-5.067 5.231 0 3.107 2.151 5.291 5.047 5.251 1.649-.02 2.835-.761 3.579-1.824h.08v1.544h1.89v-9.921h-1.89v1.443zm-3.378 6.915c-2.09 0-3.418-1.524-3.418-3.408s1.327-3.407 3.418-3.407c2.031 0 3.358 1.523 3.358 3.407 0 1.864-1.327 3.408-3.358 3.408zM41.518 20.671c-.462-2.244-2.453-3.888-5.067-3.888-3.157 0-5.268 2.305-5.268 5.231 0 2.926 2.111 5.251 5.268 5.251 2.614 0 4.605-1.683 5.067-3.948h-1.99c-.402 1.263-1.589 2.124-3.057 2.124-2.05 0-3.378-1.543-3.378-3.427 0-1.884 1.327-3.407 3.378-3.407 1.529 0 2.655.902 3.057 2.064h1.99zM51.73 18.507h-.08c-.744-1.002-1.95-1.704-3.559-1.724-2.956-.04-5.067 2.145-5.067 5.231 0 3.107 2.151 5.291 5.047 5.251 1.649-.02 2.835-.761 3.58-1.824h.08v1.544h1.89v-9.921h-1.89v1.443zm-3.377 6.915c-2.092 0-3.419-1.524-3.419-3.408s1.327-3.407 3.419-3.407c2.03 0 3.358 1.523 3.358 3.407 0 1.864-1.328 3.408-3.358 3.408zM64.475 18.607h-.08c-.744-1.062-1.991-1.804-3.58-1.824-2.895-.04-5.047 2.145-5.047 5.251 0 3.087 2.111 5.271 5.067 5.231 1.569-.02 2.816-.721 3.54-1.723h.1v1.443h1.89v-14.43h-1.89v6.052zm-3.378 6.834c-2.092 0-3.419-1.523-3.419-3.407 0-1.884 1.327-3.407 3.419-3.407 2.03 0 3.358 1.543 3.358 3.407 0 1.884-1.327 3.407-3.358 3.407zM73.562 16.783c-3.057 0-5.148 2.345-5.148 5.251 0 2.826 1.97 5.231 5.188 5.231 2.332 0 4.203-1.262 4.866-3.367h-1.99c-.443.942-1.509 1.543-2.795 1.543-1.81 0-3.097-1.202-3.238-2.745h8.224c.262-3.307-1.81-5.913-5.107-5.913zm-.04 1.824c1.588 0 2.774.982 3.076 2.405h-6.113c.282-1.403 1.468-2.405 3.037-2.405zM92.221 16.803c-1.528 0-2.694.742-3.338 1.924h-.06c-.583-1.162-1.669-1.924-3.157-1.924-1.327 0-2.332.702-2.936 1.684h-.08v-1.423h-1.83v9.92h1.91v-5.09c0-1.864.986-3.227 2.474-3.267 1.407-.04 2.232.962 2.232 2.465v5.893h1.91v-5.251c0-2.225 1.327-3.107 2.473-3.107 1.388 0 2.212.962 2.212 2.465v5.893h1.91v-6.093c0-2.405-1.367-4.089-3.72-4.089zM102.78 25.401l-3.419-8.337H97.25l4.544 10.863-.02.04c-.321.821-.683 1.122-1.568 1.122h-2.353v1.904h2.353c1.729 0 2.654-.782 3.298-2.465l4.383-11.464h-1.95L102.78 25.4z" fill="#fff"/></svg>